# xmcd CD database file
#
# Track frame offsets:
#	150
#	19267
#	40012
#	56627
#	72612
#	88532
#	98430
#	115395
#	127875
#	142362
#	157622
#	170797
#	184340
#	205077
#	218625
#	236322
#
# Disc length: 3418 seconds
#
# Revision: 0
# Processed by: cddbd v1.5.1PL0 Copyright (c) Steve Scherf et al.
# Submitted via: CDex 1.51
#
DISCID=dd0d5810
DTITLE=Apollon Music - 季節のBGM〜夏〜
DYEAR=1989
DGENRE=Instrumental
TTITLE0=COCOMO
TTITLE1=Don'tworry be happy
TTITLE2=Diamond head
TTITLE3=Pipeline
TTITLE4=この素晴らしき世界
TTITLE5=Bitter sweet samba
TTITLE6=Harbor light
TTITLE7=La Bamba
TTITLE8=夏の日の恋
TTITLE9=Walk don't run
TTITLE10=Blue star
TTITLE11=Summertime blues
TTITLE12=On the beach
TTITLE13=渚のボードウォーク
TTITLE14=君を知りたい
TTITLE15=Mr.Lonely
EXTD=YEAR: 1989
EXTT0=
EXTT1=
EXTT2=
EXTT3=
EXTT4=
EXTT5=
EXTT6=
EXTT7=
EXTT8=
EXTT9=
EXTT10=
EXTT11=
EXTT12=
EXTT13=
EXTT14=
EXTT15=
PLAYORDER=
